
<svg width="962px" height="729px" viewBox="630 -297 962 729" version="1.1" xmlns="http://www.w3.org/2000/svg" xmlns:xlink="http://www.w3.org/1999/xlink">
    <!-- Generator: Sketch 42 (36781) - http://www.bohemiancoding.com/sketch -->
    <desc>Created with Sketch.</desc>
    <defs>
        <linearGradient x1="0.00572912906%" y1="50.0083239%" x2="99.9475584%" y2="50.0083239%" id="linearGradient-1">
            <stop stop-color="#808080" stop-opacity="0.25" offset="0%"></stop>
            <stop stop-color="#808080" stop-opacity="0.12" offset="54%"></stop>
            <stop stop-color="#808080" stop-opacity="0.1" offset="100%"></stop>
        </linearGradient>
        <linearGradient x1="63683%" y1="74055%" x2="63683%" y2="20480%" id="linearGradient-2">
            <stop stop-color="#808080" stop-opacity="0.25" offset="0%"></stop>
            <stop stop-color="#808080" stop-opacity="0.12" offset="54%"></stop>
            <stop stop-color="#808080" stop-opacity="0.1" offset="100%"></stop>
        </linearGradient>
    </defs>
    <g id="undraw_newsletter_vovu" stroke="none" stroke-width="1" fill="none" fill-rule="evenodd" transform="translate(630.000000, -297.000000)">
        <g id="08e565a9-d273-44a5-8e62-fb3ff03af726">
            <ellipse id="Oval" fill="#F5F5F5" fill-rule="nonzero" cx="517.58" cy="628.85" rx="350" ry="100"></ellipse>
            <path d="M850.58,239.84 C850.58,239.84 788.58,301.84 823.58,393.84 C858.58,485.84 763.58,638.84 763.58,638.84 C763.58,638.84 764.58,638.69 766.49,638.36 C893.83,615.88 957.1,470.24 886.29,362.05 C860,321.83 838.35,274.64 850.58,239.84 Z" id="Shape" fill="#FF6363" fill-rule="nonzero"></path>
            <path d="M850.58,239.84 C850.58,239.84 815.58,315.84 850.58,377.84 C885.58,439.84 856.58,613.84 763.58,638.84" id="Shape" stroke-opacity="0.65064538" stroke="#FFF2F2" stroke-width="2"></path>
            <path d="M961,490.61 C961,490.61 890.25,479.34 883.8,542.75 C877.35,606.16 747.8,614.94 747.8,614.94 C747.8,614.94 748.64,615.52 750.23,616.56 C857.23,686.8 959.52,661.3 944.11,568.03 C938.34,533.36 938.8,498.53 961,490.61 Z" id="Shape" fill="#FF6363" fill-rule="nonzero"></path>
            <path d="M961,490.61 C961,490.61 890.25,479.34 883.8,542.75 C877.35,606.16 747.8,614.94 747.8,614.94 C747.8,614.94 748.64,615.52 750.23,616.56 C857.23,686.8 959.52,661.3 944.11,568.03 C938.34,533.36 938.8,498.53 961,490.61 Z" id="Shape" fill="#F5F5F5" fill-rule="nonzero" opacity="0.2"></path>
            <path d="M961,490.61 C961,490.61 906.08,502.67 910.59,552.61 C915.1,602.55 829,662.39 747.76,614.92" id="Shape" stroke-opacity="0.652428668" stroke="#FFF2F2" stroke-width="2"></path>
            <path d="M152.4,1.08 C144.34,0.8 136.08,1.08 128.52,3.9 C107.95,11.57 98.2,36.66 101.37,58.39 C104.54,80.12 117.58,98.99 131.11,116.28 C144.64,133.57 159.3,150.64 166.72,171.28 C170.42,181.59 172.15,193.14 168.39,203.43 C162.59,219.3 145.1,228.17 128.31,230.01 C111.52,231.85 94.66,228.26 77.81,227.01 C70.74,226.51 63.47,226.45 56.81,228.77 C49.5,231.3 43.41,236.46 37.81,241.84 C15.96,262.94 -1.53,291.74 1.3,321.98 C4.5,356.26 33.04,383.36 64.3,397.89 C74.65,402.71 85.6,406.61 94.71,413.49 C118.71,431.63 124.1,465.62 121.71,495.63 C119.32,525.64 111.18,555.68 115.71,585.43 C121.04,620.03 144.63,651.28 176.45,665.88 C204.8,678.88 240.28,678.07 265.45,659.68 C277.72,650.68 287,638.27 295.07,625.4 C307.250406,605.983689 317.133351,585.217761 324.52,563.52 C328.03,553.21 331.33,542.12 339.52,534.95 C344.52,530.54 351,528.07 357.41,526.15 C376.73,520.37 397.08,518.78 416.58,513.64 C436.08,508.5 455.7,498.92 466.3,481.79 C481.3,457.48 474.3,426.39 474.37,397.79 C474.49,332.63 513.48,274.29 527.87,210.79 C532.57,190.03 534.32,167.06 523.82,148.55 C516.68,135.92 504.65,126.92 492,119.92 C464.2,104.48 432.6,97.61 401.51,90.92 C358.3,81.64 305.83,80.44 272.34,50.42 C240.2,21.62 196.23,1.08 152.4,1.08 Z" id="Shape" fill="#FF6363" fill-rule="nonzero" opacity="0.2"></path>
            <g id="Group" opacity="0.5" transform="translate(105.000000, 31.000000)" fill-rule="nonzero" fill="url(#linearGradient-1)">
                <path d="M204.14,222.29 C204.137708,206.584154 201.677959,190.975381 196.85,176.03 L184.85,138.82 L184.85,136.98 C185.22,113.13 166.63,101.23 159.47,102.52 C152.14,103.84 131.8,93.64 131.8,93.64 L131.8,93.92 C130.405419,92.3146005 129.147693,90.5952625 128.04,88.78 C135.139502,83.6093131 139.853953,75.7942008 141.116852,67.1025948 C142.379751,58.4109888 140.084381,49.5773424 134.75,42.6 C136.948383,40.9481585 138.625077,38.6986798 139.58,36.12 C141.24,31.45 139.97,26.12 137.27,21.96 C136.121925,20.2234146 134.779958,18.623119 133.27,17.19 C130.982892,14.9241531 128.484918,12.8815741 125.81,11.09 C119.14,6.47 111.81,2.5 103.81,1.09 C102.4257,0.763135164 100.9843,0.763135164 99.6,1.09 C98.3985517,1.5748425 97.254836,2.19197941 96.19,2.93 C90.71,6.05 83.89,4.7 77.57,4.37 C71.25,4.04 63.57,5.81 61.57,11.74 C60.95,13.57 60.99,15.55 60.57,17.43 C59.57,22.03 56.02,25.6 53.28,29.43 C50.54,33.26 48.49,38.43 50.77,42.59 C51.55,43.99 52.77,45.28 52.77,46.88 C52.77,48.03 52.09,49.06 51.77,50.16 C51.08,52.66 52.38,55.16 54.38,56.97 C55.2418123,57.8991357 56.2565029,58.6736828 57.38,59.26 C60.55,60.88 64.2,61.38 67.43,62.88 C69.0422719,63.6371795 70.52139,64.6502742 71.81,65.88 C74.9985579,69.2178618 76.7134928,73.6961477 76.57,78.31 L77.24,78.38 L77.24,78.97 C77.94,79.05 78.68,79.12 79.41,79.15 C80.4600905,80.8452007 81.6616729,82.4417322 83,83.92 C82.7733333,84.7733333 82.5166667,85.64 82.23,86.52 C79.88,88.15 60.66,100.95 38.8,97.87 C15.47,94.58 2.13,196.58 2.13,196.58 C1.265286,202.413048 0.844078768,208.303263 0.87,214.2 C0.77,229.2 3.92,248.83 21.47,245.94 L30.8,242.87 L30.8,293.32 C30.8,293.32 32.13,307.14 27.47,316.32 C22.81,325.5 42.14,322.24 42.14,322.24 C42.14,322.24 42.88,323.01 44.24,324.32 L43.81,325.53 L44.38,326.11 C41.837727,334.801425 38.4097512,343.208846 34.15,351.2 L34.7,351.48 C34.35,352.15 34.15,352.48 34.15,352.48 C34.15,352.48 41.33,356.15 51.21,360.88 C59.15,387.72 76.53,449.88 70.81,461.72 L70.97,462.06 L70.97,462.06 C72.04,464.28 78.02,477.37 76.81,489.36 C75.72,500.08 90.56,548.79 96.1,566.48 L93.48,567.01 L102.81,600.57 L100.81,622.29 C100.81,622.29 89.48,652.56 116.14,646.64 C142.8,640.72 135.47,616.37 135.47,616.37 L136.14,567.01 C136.14,567.01 133.57,565.58 130.4,564.21 C128.22,558.32 123.47,544.4 123.47,534.77 C123.47,522.27 114.8,468.3 114.8,468.3 L114.8,468.19 L114.8,467.98 L114.8,467.92 L114.75,467.2 L114.75,467.08 C114.75,466.41 114.64,465.49 114.56,464.37 L114.56,464.31 C113.56,449.72 110.56,400.15 112.75,374.31 C114.675913,372.996665 116.679579,371.801144 118.75,370.73 C125.24,387.13 141.97,431.44 140.9,450.03 C139.57,473.03 140.57,454.97 140.9,452.03 C141,451.12 141.07,452.22 141.1,454.69 L141.1,456.17 L141.1,457.9 L141.1,459.9 L141.1,460.96 L141.1,463.22 L141.1,464.42 C141.1,466.42 141.1,468.64 141.03,470.95 L141.03,472.35 C141.03,473.76 141.03,475.2 140.96,476.66 C140.96,478.66 140.88,480.6 140.84,482.61 C140.74,487.11 140.61,491.66 140.45,495.92 C140.45,496.393333 140.433333,496.863333 140.4,497.33 C140.366667,498.263333 140.33,499.176667 140.29,500.07 C140.25,500.963333 140.21,501.836667 140.17,502.69 C140.13,503.536667 140.086667,504.36 140.04,505.16 C139.99,506.1 139.93,507 139.88,507.86 L136.26,507.34 L135.49,515.66 C134.277055,528.869357 135.984039,542.183836 140.49,554.66 C141.73,558.08 142.69,560.91 142.9,561.92 C143.57,565.21 142.9,588.92 142.9,588.92 C142.9,588.92 146.9,619.85 165.57,613.92 C173.97,611.25 178.05,603.13 180,594.99 C182.163641,585.553922 181.356794,575.679661 177.69,566.72 C175.04,560.06 172.33,550.72 174.24,543.5 C177.57,531 177.57,513.23 177.57,513.23 L175.51,512.94 C176.023412,511.963974 176.487333,510.962705 176.9,509.94 C176.9,509.94 176.23,464.53 182.23,458.61 C185.53,455.35 185.23,447.52 184.23,441.12 C182.80146,431.858019 182.465827,422.460293 183.23,413.12 C183.64,408.31 184.23,404.12 184.92,402.63 C186.68,399.15 188.44,364.07 180.65,347.19 L182.25,346.69 L182,345.45 L182.25,345.37 C183.425077,348.506335 184.760163,351.580369 186.25,354.58 C186.643585,354.888558 187.09623,355.113179 187.58,355.24 C209.17,351.45 210.04,331.3 208.84,320.3 C209.75,320.74 210.25,321.02 210.25,321.02 L212.25,292.02 C214.3,287.39 215.06,281.48 215.01,275.09 C215.1,252.25 204.14,222.29 204.14,222.29 Z M180.34,304.72 C178.86,292.09 176.81,280.2 176.81,280.2 L166.81,244.66 L166.81,231.72 L182.67,290.92 L180.34,304.72 Z" id="Shape"></path>
            </g>
            <path d="M240.38,529.85 L239.64,537.98 C238.472231,550.897887 240.127122,563.915223 244.49,576.13 C245.68,579.48 246.61,582.24 246.81,583.23 C247.45,586.45 246.81,609.6 246.81,609.6 C246.81,609.6 250.67,639.83 268.68,634.04 C276.78,631.44 280.68,623.49 282.6,615.54 C284.681542,606.319911 283.900077,596.684172 280.36,587.92 C277.8,581.41 275.18,572.26 277.03,565.23 C280.25,553.01 280.25,535.65 280.25,535.65 L240.38,529.85 Z" id="Shape" fill="#5A5773" fill-rule="nonzero"></path>
            <path d="M221.09,390.29 C221.09,390.29 246.17,451.39 244.88,473.89 C243.59,496.39 244.56,478.71 244.88,475.82 C245.45,470.67 244.88,531.82 242.95,538.82 C242.95,538.82 269.32,558.11 279.61,532.39 C279.61,532.39 278.97,488.02 284.75,482.23 C287.93,479.05 287.62,471.39 286.68,465.14 C285.292578,456.099166 284.957008,446.928054 285.68,437.81 C286.07,433.11 286.61,428.97 287.31,427.56 C289.24,423.7 291.17,379.97 279.59,367.75 L221.09,390.29 Z" id="Shape" fill="#605D82" fill-rule="nonzero"></path>
            <path d="M246.17,538.85 C248.1,531.78 248.67,470.67 248.1,475.85 C247.78,478.74 246.81,496.43 248.1,473.92 C249.39,451.41 224.31,390.32 224.31,390.32 L280.42,368.74 C280.16,368.41 279.89,368.1 279.62,367.81 L221.1,390.32 C221.1,390.32 246.18,451.42 244.89,473.92 C243.6,496.42 244.57,478.74 244.89,475.85 C245.46,470.7 244.89,531.85 242.96,538.85 C242.96,538.85 253.49,546.55 263.84,545.73 C254.63,545.04 246.17,538.85 246.17,538.85 Z" id="Shape" fill="#000000" fill-rule="nonzero" opacity="0.1"></path>
            <path d="M199.22,588.37 L208.22,621.17 L206.29,642.39 C206.29,642.39 195.36,671.97 221.08,666.18 C246.8,660.39 239.73,636.6 239.73,636.6 L240.37,588.37 C240.37,588.37 230.08,582.58 225.58,583.23 C221.08,583.88 199.22,588.37 199.22,588.37 Z" id="Shape" fill="#5A5773" fill-rule="nonzero"></path>
            <path d="M154.85,374.86 C154.85,374.86 184.43,470.68 177.36,485.47 C177.36,485.47 184.43,499.62 183.15,512.47 C181.87,525.32 203.73,594.14 203.73,594.14 L235.89,588.35 C235.89,588.35 228.17,569.06 228.17,556.84 C228.17,544.62 219.81,491.84 219.81,491.84 C219.81,491.84 212.74,395.37 221.1,385.08 L154.85,374.86 Z" id="Shape" fill="#605D82" fill-rule="nonzero"></path>
            <g id="Group" opacity="0.1" transform="translate(154.000000, 374.000000)" fill-rule="nonzero" fill="#000000">
                <path d="M64.6,18.92 C59.27,40.76 65.16,121.13 65.16,121.13 C65.16,121.13 73.52,173.86 73.52,186.13 C73.52,195.46 78.01,208.9 80.14,214.74 L81.88,214.43 C81.88,214.43 74.16,195.14 74.16,182.92 C74.16,170.7 65.8,117.92 65.8,117.92 C65.8,117.92 60.42,44.47 64.6,18.92 Z" id="Shape"></path>
                <path d="M23.36,111.47 L23.52,111.8 C23.57,111.47 23.62,111.12 23.65,110.8 C23.5648708,111.028152 23.4680766,111.25178 23.36,111.47 L23.36,111.47 Z" id="Shape"></path>
                <path d="M65.64,14.24 C65.9321889,13.1306782 66.4235012,12.0836748 67.09,11.15 L0.85,0.86 C0.85,0.86 1.24,2.11 1.91,4.34 L65.64,14.24 Z" id="Shape"></path>
            </g>
            <path d="M309.19,340.13 C309.19,340.13 318.84,376.13 289.9,381.29 C289.430491,381.167843 288.991302,380.94995 288.61,380.65 C288.61,380.65 271.89,347.85 284.75,334.99 L309.19,340.13 Z" id="Shape" fill="#A1616A" fill-rule="nonzero"></path>
            <path d="M190.86,100.92 C190.86,100.92 192.79,127.92 171.57,140.79 C150.35,153.66 216.57,189.02 216.57,189.02 L251.3,133.71 C251.3,133.71 236.52,135.62 227.52,109.92 L190.86,100.92 Z" id="Shape" fill="#A1616A" fill-rule="nonzero"></path>
            <path d="M176.71,142.7 C176.71,142.7 209.51,210.87 239.09,146.56 L284.75,372.92 C284.75,372.92 214,394.79 213.37,405.08 C212.74,415.37 142,378.72 142,378.72 C142,378.72 157.43,350.42 153.58,333.06 C149.73,315.7 176.71,142.7 176.71,142.7 Z" id="Shape" fill="#000000" fill-rule="nonzero" opacity="0.1"></path>
            <path d="M176.71,141.41 C176.71,141.41 209.51,209.58 239.09,145.27 L284.75,371.64 C284.75,371.64 214,393.51 213.37,403.8 C212.74,414.09 142,377.43 142,377.43 C142,377.43 157.43,349.13 153.58,331.77 C149.73,314.41 176.71,141.41 176.71,141.41 Z" id="Shape" fill="#E1E7EF" fill-rule="nonzero"></path>
            <path d="M208.87,606.38 C208.87,606.38 200.51,587.73 219.8,587.73 C239.09,587.73 235.88,604.45 235.88,604.45 L208.87,606.38 Z" id="Shape" fill="#5A5773" fill-rule="nonzero"></path>
            <path d="M252.6,558.14 C252.6,558.14 244.88,538.2 264.18,537.56 C283.48,536.92 273.83,555.56 273.83,555.56 L252.6,558.14 Z" id="Shape" fill="#5A5773" fill-rule="nonzero"></path>
            <path d="M236.2,126.92 C236.2,126.92 255.81,136.92 262.89,135.6 C269.97,134.28 288.61,146.53 287.33,170.97 L298.95,207.43 C303.598312,222.049431 305.959508,237.299385 305.95,252.64 L305.95,252.64 C305.95,252.64 322.67,298.94 313.67,319.52 L311.74,347.82 C311.74,347.82 296.95,339.46 281.51,342.03 L285.4,318.92 L268,253.31 L239.06,183.21 L236.2,126.92 Z" id="Shape" fill="#000000" fill-rule="nonzero" opacity="0.1"></path>
            <path d="M236.2,125.65 C236.2,125.65 255.81,135.65 262.89,134.33 C269.97,133.01 288.61,145.26 287.33,169.7 L298.95,206.16 C303.598312,220.779431 305.959508,236.029385 305.95,251.37 L305.95,251.37 C305.95,251.37 322.67,297.67 313.67,318.25 L311.74,346.55 C311.74,346.55 296.95,338.19 281.51,340.76 L285.37,317.61 L268,252.02 L239.09,181.92 L236.2,125.65 Z" id="Shape" fill="#67647E" fill-rule="nonzero"></path>
            <path d="M268.68,203.79 L268.68,276.46 L278.33,311.19 C278.33,311.19 284.76,349.13 282.83,360.71 C280.9,372.29 250.03,374.86 241.67,365.21 C233.31,355.56 237.81,273.21 237.81,273.21 L236.2,152.66 L237.49,148.8 L268.68,203.79 Z" id="Shape" fill="#000000" fill-rule="nonzero" opacity="0.1"></path>
            <path d="M270,200.58 L270,273.25 L279.65,307.98 C279.65,307.98 286.08,345.92 284.15,357.5 C282.22,369.08 251.35,371.65 242.99,362 C234.63,352.35 239.13,270 239.13,270 L237.52,149.42 L270,200.58 Z" id="Shape" fill="#67647E" fill-rule="nonzero"></path>
            <path d="M140.38,261.03 L160.96,325.03 L151.31,352.36 C151.31,352.36 196.97,400.59 225.91,377.44 C225.91,377.44 229.13,279.04 222.69,255.89 C216.25,232.74 185.39,154.89 185.39,154.89 L179,134.34 L144.92,153.63 L140.38,261.03 Z" id="Shape" fill="#000000" fill-rule="nonzero" opacity="0.1"></path>
            <path d="M138.77,257.81 L138.77,320.81 C138.77,320.81 140.06,334.32 135.55,343.32 C131.04,352.32 149.7,349.11 149.7,349.11 C149.7,349.11 195.36,397.34 224.3,374.19 C224.3,374.19 227.52,275.79 221.08,252.64 C214.64,229.49 183.78,151.64 183.78,151.64 L177.35,131.06 L143.27,150.35 L138.77,257.81 Z" id="Shape" fill="#67647E" fill-rule="nonzero"></path>
            <path d="M188.61,119.87 C188.61,119.87 169,134.34 146.49,131.12 C123.98,127.9 111.12,227.59 111.12,227.59 C111.12,227.59 102.76,279.04 129.77,274.54 L189.58,254.6 C189.58,254.6 176.72,241.09 178.65,223.73 L149.7,235.3 L151,180 L188.61,119.87 Z" id="Shape" fill="#000000" fill-rule="nonzero" opacity="0.1"></path>
            <path d="M112.4,226.3 C112.4,226.3 104.04,277.75 131.05,273.25 L190.86,253.31 C190.86,253.31 178,239.81 179.93,222.44 L151,234.02 L112.4,226.3 Z" id="Shape" fill="#000000" fill-rule="nonzero" opacity="0.1"></path>
            <path d="M178.51,229.22 C178.51,229.22 198.58,202.83 213.36,215.5 C228.14,228.17 183.81,251.39 183.81,251.39 L178.51,229.22 Z" id="Shape" fill="#A1616A" fill-rule="nonzero"></path>
            <path d="M188.61,118.58 C188.61,118.58 169,133.05 146.49,129.83 C123.98,126.61 111.12,226.3 111.12,226.3 C111.12,226.3 102.76,277.75 129.77,273.25 L189.58,253.31 C189.58,253.31 176.72,239.8 178.65,222.44 L149.7,234.02 L151,178.71 L183.8,151.71 L188.61,118.58 Z" id="Shape" fill="#67647E" fill-rule="nonzero"></path>
            <path d="M228.16,111.18 L191.5,102.18 C191.5,102.18 193.41,104.34 191.18,112.79 C197.08,119.56 204.33,128.55 214.01,128.55 C220.937267,128.562986 227.681695,126.32771 233.23,122.18 C231.159553,118.700945 229.460232,115.014054 228.16,111.18 Z" id="Shape" fill="#000000" fill-rule="nonzero" opacity="0.1"></path>
            <circle id="Oval" fill="#A1616A" fill-rule="nonzero" cx="213.37" cy="95.11" r="32.16"></circle>
            <path d="M225.56,81.15 C233.02,79.88 241.22,76.57 243.72,69.43 C245.32,64.86 244.1,59.66 241.49,55.59 C238.88,51.52 235.04,48.39 231.08,45.59 C224.65,41.07 217.56,37.19 209.82,35.83 C208.485473,35.5109344 207.094527,35.5109344 205.76,35.83 C204.599447,36.3050293 203.495874,36.9088081 202.47,37.63 C197.18,40.68 190.6,39.36 184.47,39.04 C178.34,38.72 170.99,40.45 169.06,46.24 C168.46,48.03 168.5,49.96 168.06,51.8 C167.06,56.3 163.67,59.8 161.06,63.55 C158.45,67.3 156.44,72.37 158.64,76.41 C159.39,77.78 160.64,79.04 160.64,80.6 C160.447021,81.7087754 160.110877,82.7877972 159.64,83.81 C158.73,87.13 161.38,90.48 164.44,92.06 C167.5,93.64 171.02,94.13 174.14,95.6 C180.10357,98.5427953 183.803667,104.692692 183.61,111.34 C186.45,111.67 189.76,111.84 191.68,109.72 C192.54,108.77 192.96,107.5 193.74,106.49 C194.74,105.17 196.3,104.39 197.58,103.33 C204.31,97.8 199.53,90.16 203.34,84.2 C205.34,81.13 208.52,82.07 211.74,82.12 C216.366834,82.2282573 220.993652,81.9035096 225.56,81.15 L225.56,81.15 Z" id="Shape" fill="#000000" fill-rule="nonzero" opacity="0.1"></path>
            <path d="M224.92,80.51 C232.38,79.24 240.58,75.93 243.08,68.79 C244.68,64.22 243.46,59.02 240.85,54.95 C238.24,50.88 234.4,47.75 230.44,44.95 C224.01,40.43 216.92,36.55 209.18,35.19 C207.845473,34.8709344 206.454527,34.8709344 205.12,35.19 C203.959447,35.6650293 202.855874,36.2688081 201.83,36.99 C196.54,40.04 189.96,38.72 183.83,38.4 C177.7,38.08 170.35,39.81 168.42,45.6 C167.82,47.39 167.86,49.32 167.42,51.16 C166.42,55.66 163.03,59.16 160.42,62.91 C157.81,66.66 155.8,71.73 158,75.77 C158.75,77.14 160,78.4 160,79.96 C159.807021,81.0687754 159.470877,82.1477972 159,83.17 C158.09,86.49 160.74,89.84 163.8,91.42 C166.86,93 170.38,93.49 173.5,94.96 C179.488715,97.900208 183.20405,104.071575 183,110.74 C185.84,111.07 189.15,111.24 191.07,109.12 C191.93,108.17 192.35,106.9 193.13,105.89 C194.13,104.57 195.69,103.79 196.97,102.73 C203.7,97.2 198.92,89.56 202.73,83.6 C204.73,80.53 207.91,81.47 211.13,81.52 C215.748081,81.6131714 220.364776,81.2750378 224.92,80.51 Z" id="Shape" fill="#4A4347" fill-rule="nonzero"></path>
            <path d="M263.85,188.68 C263.85,188.68 270.92,225.34 267.71,239.49 C265.748742,247.721546 266.038888,256.329208 268.55,264.41" id="Shape" fill="#000000" fill-rule="nonzero" opacity="0.1"></path>
            <path d="M149.56,204.11 C149.56,204.11 146.48,228.55 151.61,233.69" id="Shape" fill="#000000" fill-rule="nonzero" opacity="0.1"></path>
            <path d="M329.13,505.3 C329.958427,505.3 330.63,504.628427 330.63,503.8 C330.63,502.971573 329.958427,502.3 329.13,502.3 C328.301573,502.3 327.63,502.971573 327.63,503.8 C327.63,504.628427 328.301573,505.3 329.13,505.3 Z" id="Shape" fill="#000000" fill-rule="nonzero"></path>
            <g id="Group" opacity="0.5" transform="translate(244.000000, 119.000000)" fill-rule="nonzero" fill="url(#linearGradient-2)">
                <path d="M547,211.55 L547,210.72 L274.16,0.92 C273.806497,0.658300933 273.323503,0.658300933 272.97,0.92 L0.12,210.72 L0.12,535.92 L0.64,535.92 L0.64,536.44 L547.53,536.44 L547.53,211.24 L547,211.55 Z" id="Shape"></path>
            </g>
            <polygon id="Shape" fill="#FFFFFF" fill-rule="nonzero" points="781.58 645.85 253.58 645.85 253.58 331.85 517.58 128.85 781.58 331.85"></polygon>
            <polygon id="Shape" fill="#E0E0E0" fill-rule="nonzero" points="762.58 627.24 272.58 627.24 272.58 335.84 517.58 147.45 762.58 335.84"></polygon>
            <rect id="Rectangle-path" fill="#FF6363" fill-rule="nonzero" transform="translate(501.077577, 372.352326) rotate(-14.690000) translate(-501.077577, -372.352326) " x="346.577577" y="175.852326" width="309" height="393"></rect>
            <rect id="Rectangle-path" fill="#F5F5F5" fill-rule="nonzero" x="364.58" y="200.85" width="309" height="393"></rect>
            <polygon id="Shape" fill="#000000" fill-rule="nonzero" opacity="0.05" points="256.08 332.35 520.08 489.35 256.08 646.35"></polygon>
            <polygon id="Shape" fill="#FFFFFF" fill-rule="nonzero" points="254.08 332.35 518.08 489.35 254.08 646.35"></polygon>
            <polygon id="Shape" fill="#000000" fill-rule="nonzero" opacity="0.05" points="780.08 332.35 516.08 489.35 780.08 646.35"></polygon>
            <polygon id="Shape" fill="#FFFFFF" fill-rule="nonzero" points="782.08 332.35 518.08 489.35 782.08 646.35"></polygon>
            <polygon id="Shape" fill="#000000" fill-rule="nonzero" opacity="0.05" points="254.08 641.35 518.08 435.35 782.08 641.35"></polygon>
            <polygon id="Shape" fill="#FFFFFF" fill-rule="nonzero" points="254.08 646.35 518.08 440.35 782.08 646.35"></polygon>
            <path d="M307.73,670.2 C307.73,670.2 294.47,625.2 310.22,592.06 C316.91212,578.207156 318.929771,562.557202 315.97,547.46 C314.510175,540.305294 312.398016,533.299355 309.66,526.53" id="Shape" stroke="#535461" stroke-width="2"></path>
            <path d="M319.45,505.59 C319.45,511.11 309.45,527.1 309.45,527.1 C309.45,527.1 299.45,511.1 299.45,505.59 C299.45,500.067153 303.927153,495.59 309.45,495.59 C314.972847,495.59 319.45,500.067153 319.45,505.59 Z" id="Shape" fill="#FF6363" fill-rule="nonzero"></path>
            <path d="M336,536.15 C333,540.78 315.92,548.78 315.92,548.78 C315.92,548.78 316.23,529.92 319.23,525.29 C322.336967,520.939559 328.316139,519.802209 332.803394,522.708088 C337.290649,525.613966 338.698775,531.53522 336,536.15 Z" id="Shape" fill="#FF6363" fill-rule="nonzero"></path>
            <path d="M335.24,588.36 C330.31,590.84 311.53,589.13 311.53,589.13 C311.53,589.13 321.32,573.01 326.24,570.53 C329.447122,568.735688 333.380005,568.845034 336.482475,570.81477 C339.584946,572.784507 341.357054,576.29722 341.097609,579.96299 C340.838163,583.628761 338.588971,586.856866 335.24,588.37 L335.24,588.36 Z" id="Shape" fill="#FF6363" fill-rule="nonzero"></path>
            <path d="M302.56,632.51 C302.56,632.51 309.48,614.97 313.92,611.69 C318.357304,608.729596 324.337079,609.773179 327.50933,614.061592 C330.68158,618.350005 329.929416,624.373377 325.8,627.75 C321.36,631.03 302.56,632.51 302.56,632.51 Z" id="Shape" fill="#FF6363" fill-rule="nonzero"></path>
            <path d="M294.91,549.84 C298.91,553.68 317.3,557.67 317.3,557.67 C317.3,557.67 312.79,539.36 308.83,535.52 C304.828905,531.983497 298.755159,532.214627 295.034401,536.044976 C291.313643,539.875326 291.258873,545.953221 294.91,549.85 L294.91,549.84 Z" id="Shape" fill="#FF6363" fill-rule="nonzero"></path>
            <path d="M284.45,596.05 C289.38,598.53 308.16,596.82 308.16,596.82 C308.16,596.82 298.37,580.7 293.45,578.22 C288.568901,576.014619 282.816864,578.046741 280.404361,582.828859 C277.991857,587.610977 279.775646,593.444805 284.45,596.06 L284.45,596.05 Z" id="Shape" fill="#FF6363" fill-rule="nonzero"></path>
            <path d="M280.45,642.35 C284.89,645.63 303.69,647.11 303.69,647.11 C303.69,647.11 296.77,629.57 292.33,626.29 C289.474554,623.955103 285.565637,623.381671 282.159883,624.79806 C278.75413,626.21445 276.404613,629.390648 276.046974,633.061807 C275.689336,636.732966 277.381653,640.302914 280.45,642.35 L280.45,642.35 Z" id="Shape" fill="#FF6363" fill-rule="nonzero"></path>
            <rect id="Rectangle-path" fill="#FF6363" fill-rule="nonzero" opacity="0.5" x="382.58" y="218.85" width="124" height="10"></rect>
            <rect id="Rectangle-path" fill="#FF6363" fill-rule="nonzero" opacity="0.5" x="382.58" y="258.85" width="268" height="10"></rect>
            <rect id="Rectangle-path" fill="#FF6363" fill-rule="nonzero" opacity="0.5" x="382.58" y="284.85" width="268" height="10"></rect>
            <rect id="Rectangle-path" fill="#FF6363" fill-rule="nonzero" opacity="0.4" x="382.58" y="310.85" width="268" height="10"></rect>
            <rect id="Rectangle-path" fill="#FF6363" fill-rule="nonzero" opacity="0.4" x="382.58" y="336.85" width="268" height="10"></rect>
            <rect id="Rectangle-path" fill="#FF6363" fill-rule="nonzero" opacity="0.3" x="382.58" y="362.85" width="153" height="10"></rect>
            <rect id="Rectangle-path" fill="#FF6363" fill-rule="nonzero" opacity="0.3" x="382.58" y="388.85" width="209" height="10"></rect>
        </g>
    </g>
</svg>